<svg width="190" height="21" fill="none" xmlns="http://www.w3.org/2000/svg"><g clip-path="url('#clip0_0_83')" fill="#fff"><path d="M13.002.158H0v19.817h13.002c13.263 0 13.291-19.817 0-19.817Zm-.659 15.524H4.971V4.45h7.372c7.534 0 7.521 11.233 0 11.233ZM180.042.158H167.04v19.817h13.002c13.263 0 13.291-19.817 0-19.817Zm-.661 15.522h-7.367V4.451h7.367c7.532 0 7.517 11.23 0 11.23ZM104.335 6.958c-18.908-10.88-24.56 14.579-2.972 8.39v-2.49h-6.302V8.806h11.076v9.175C77.585 32.096 72.312-8.44 104.623 1.623l-.291 5.335h.003ZM138.82.158h4.595v12.555c0 5.487 11.876 5.487 11.876 0V.158h4.734v12.555c0 11.051-21.207 11.051-21.207 0V.158h.002ZM40.553.158h-4.214L24.588 19.975h5.533l2.211-3.775h12.365l2.35 3.775h5.15L40.552.158Zm-5.665 11.6 3.505-5.994 3.501 5.994h-7.006ZM125.042.158h-4.213l-11.751 19.817h5.533l2.211-3.775h12.365l2.349 3.775h5.15L125.042.158Zm-5.701 11.6 3.542-5.994 3.542 5.994h-7.084Z"/><path d="M73.23 12.74C80.139 9.485 77.168.158 69.707.158H55.521v19.817h4.306v-6.419h8.636l3.938 6.419h5.184l-4.355-7.233v-.002ZM68.803 9.3h-8.916V4.203h8.916c4.396 0 4.396 5.095 0 5.095Z"/></g><defs><clipPath id="clip0_0_83"><path fill="#fff" d="M0 0h190v21H0z"/></clipPath></defs></svg>