<svg width="400" height="128" fill="none" xmlns="http://www.w3.org/2000/svg"><g clip-path="url('#clip0_0_73')" fill="#fff"><path d="M181.704 76.46c.407-1.12.832-2.235 1.218-3.36 2.263-6.606 4.518-13.212 6.778-19.817.973-2.843 1.929-5.694 2.939-8.523.134-.38.495-.73.832-.987 6.168-4.663 12.347-9.306 18.522-13.959 1.834-1.382 3.658-2.772 5.577-4.226 4.943 6.71 9.84 13.365 14.79 20.084-1.462 1.786-2.939 3.578-4.408 5.377-4.724 5.793-9.444 11.59-14.167 17.383-1.066 1.304-2.125 2.615-3.226 3.887-.418.481-.393.745.124 1.119 1.335.973 2.67 1.952 3.923 3.025.811.695 1.718.677 2.649.695 6.129.12 12.258.231 18.391.349.252.003.506.046.949.085-1.006 1.429-1.908 2.722-2.822 4.008a14077.59 14077.59 0 0 1-9.9 13.935c-1.25 1.756-2.486 3.52-3.789 5.237-.209.275-.737.481-1.084.442-3.324-.37-6.646-.798-9.964-1.222-1.31-.167-2.638-.27-3.912-.595-.624-.16-1.201-.695-1.693-1.172-5.757-5.562-11.494-11.145-17.24-16.714-1.498-1.453-3.017-2.889-4.706-4.507-.099.624-.209 1.034-.22 1.447-.088 3.851-.138 7.703-.244 11.554-.071 2.633-.223 5.263-.322 7.892-.018.46-.149.698-.655.73-1.555.093-3.106.243-4.66.343-4.111.26-8.222.509-12.333.758-.375.022-.751 0-1.293 0V52.841l-.276-.086-6.451 8.462-11.738-6.798-3.523 44.81c-1.144.083-2.274.21-3.407.24-4.833.117-9.67.192-14.503.32-.602.014-.613-.267-.616-.691-.043-4.297-.096-8.597-.128-12.894-.025-3.41-.011-6.82-.035-10.23-.05-6.844-.121-13.691-.156-20.536 0-.684-.177-1.118-.768-1.528-3.612-2.505-7.192-5.06-10.782-7.593-.231-.16-.486-.281-.861-.498-.021.448-.049.755-.049 1.065-.015 3.47.003 6.94-.047 10.41-.074 5.006-.191 10.009-.308 15.014-.014.635.142 1.07.655 1.518 2.939 2.598 5.815 5.27 8.743 7.881.524.467.524.71.099 1.272-5.159 6.838-10.283 13.703-15.417 20.558-.12.161-.273.299-.513.563-4.784-5.216-9.536-10.393-14.419-15.716-2.723 5.786-5.35 11.376-8.02 17.049-1.484-.663-2.9-1.283-4.31-1.924-5.109-2.334-10.215-4.671-15.32-7.008-1.045-.478-2.107-.916-3.12-1.454-.259-.136-.517-.57-.514-.862.153-6.93.326-13.86.52-20.79.146-5.177.323-10.353.497-15.53.039-1.151.102-2.302.187-3.453.043-.57-.134-.919-.662-1.19-2.252-1.154-4.48-2.351-6.717-3.534-.308-.16-.612-.328-.991-.531 4.227-8.12 8.42-16.168 12.648-24.292 2.368 1.97 4.66 3.877 6.95 5.78 2.929 2.436 5.85 4.88 8.792 7.3.588.48.893.94.826 1.777-.298 3.777-.493 7.557-.748 11.337-.22 3.275-.453 6.546-.708 9.816-.3 3.859-.637 7.714-.952 11.569-.089 1.09-.145 2.184-.248 3.27-.053.592.269.838.75 1.03 2.971 1.19 5.939 2.395 8.91 3.595.97.392 1.94.791 3.02 1.237.102-1.073.223-1.996.28-2.925.187-3.1.336-6.203.538-9.303.272-4.158.598-8.316.867-12.474.206-3.157.344-6.32.542-9.477.251-3.987.535-7.974.797-11.96.106-1.622.258-3.246.269-4.871.003-.855.403-1.058 1.097-1.112 1.672-.128 3.347-.25 5.014-.402 3.545-.321 7.089-.66 10.634-.987.145-.015.29 0 .485 0v17.53l21.05-19.34 11.671 17.298c4.09-5.081 8.098-10.055 12.188-15.132 4.755 5.398 9.472 10.746 14.216 16.133l-5.58 7.375c.057.071.117.142.174.214 6.71-4.247 13.42-8.494 20.303-12.848-.4 12.502-.797 24.815-1.193 37.125.102.018.202.04.304.057v-.018Zm23.133-7.319c.234-.267.442-.467.609-.702 2.801-3.908 5.587-7.824 8.399-11.718.396-.552.396-.823-.209-1.243-3.314-2.299-6.59-4.657-9.883-6.99-1.069-.76-2.149-1.5-3.392-2.37-.025.538-.06.851-.049 1.161.063 1.443.177 2.886.205 4.333.088 4.614.142 9.231.234 13.845.007.32.124.759.35.934 1.201.94 2.451 1.813 3.739 2.75h-.003ZM304.704 67.577c6.512 7.315 12.921 14.519 19.33 21.72l.209-.097c.017-.214.088-.438.046-.645-.588-3.039-1.201-6.074-1.792-9.114-.418-2.14-.811-4.286-1.218-6.427-.719-3.798-1.448-7.593-2.149-11.394-.103-.549-.337-.734-.882-.734-1.827 0-3.654-.064-5.481-.078-5.928-.043-11.859-.075-17.786-.11-.202 0-.407-.022-.659-.037-.085-.292-.205-.566-.237-.847-.329-2.85-.641-5.701-.963-8.551-.234-2.056-.461-4.115-.719-6.168-.071-.56.127-.915.528-1.304 4.904-4.788 9.787-9.602 14.68-14.404 1.183-1.158 2.365-2.316 3.583-3.435.252-.232.663-.388 1.01-.41 3.852-.217 7.708-.392 11.564-.602 5.177-.278 10.35-.588 15.53-.859 1.112-.057 2.228-.007 3.439-.007-.577 1.45-1.133 2.872-1.707 4.283-2.567 6.317-5.148 12.627-7.705 18.95-.63 1.558-.602 1.576.86 2.51 2.238 1.424 4.497 2.82 6.721 4.275.584.38.825.249 1.13-.325 3.119-5.9 6.256-11.793 9.411-17.675.188-.346.482-.691.811-.894 8.76-5.398 17.531-10.774 26.302-16.158.471-.289.938-.58 1.491-.923 1.101 2.195 2.163 4.297 3.215 6.406 3.098 6.21 6.186 12.428 9.302 18.627.417.834.499 1.436-.156 2.28-5.651 7.29-11.235 14.633-16.837 21.962-2.188 2.864-4.352 5.747-6.551 8.604-.361.47-.382.78.064 1.2 1.285 1.22 2.507 2.51 3.824 3.688.383.343.992.52 1.519.585 2.978.36 5.963.641 8.941.99 2.949.346 5.892.752 8.842 1.115 2.276.282 4.553.535 6.83.802.223.025.446.057.963.125l-39.778 43.492a32.88 32.88 0 0 1-.259-.132c.082-.887.145-1.778.245-2.665.198-1.76.417-3.517.619-5.277.209-1.82.4-3.641.602-5.458.269-2.441.538-4.881.804-7.322.184-1.674.4-3.345.506-5.027.025-.381-.241-.919-.545-1.165-2.918-2.352-5.818-4.731-8.842-6.94-1.175-.86-1.565-1.989-1.898-3.225-1.664-6.146-3.289-12.299-4.95-18.445-1.54-5.69-3.109-11.376-4.667-17.063-.028-.1-.074-.192-.272-.285-.082.656-.195 1.312-.234 1.97-.262 4.433-.489 8.865-.765 13.297-.18 2.922-.439 5.844-.634 8.765a159.157 159.157 0 0 0-.308 5.94c-.035 1.229-.428 2.09-1.49 2.868-8.148 5.95-16.239 11.97-24.337 17.988-.581.432-1.016.563-1.7.132-4.581-2.893-9.188-5.74-13.798-8.59-2.858-1.767-5.726-3.51-8.587-5.266-.145-.089-.276-.203-.464-.342 5.134-8.034 10.247-16.04 15.449-24.178v.004Zm56.654-24.039c-.081.342-.152.506-.159.674-.149 3.605-.294 7.211-.439 10.82-.174 4.286-.351 8.573-.507 12.859-.01.299.039.69.224.887.782.837 1.628 1.614 2.535 2.494l10.98-15.57c-4.21-4.055-8.353-8.041-12.634-12.167v.003Zm-49.923 9.45c7.064-1.358 14.026-2.69 20.984-4.027l.053-.267-21.037-11.565v15.858Z"/><path d="M48.627 49.346c-.457.88-.914 1.76-1.374 2.64-1.71 3.27-3.414 6.541-5.149 9.798-.134.253-.485.502-.768.545-3.31.499-6.628.965-9.946 1.418-.645.09-.878.278-.634.976 1.908 5.476 3.774 10.97 5.676 16.45 2.015 5.811 4.061 11.608 6.069 17.422 2.287 6.62 4.546 13.251 6.823 19.874.63 1.839 1.279 3.674 1.912 5.512.092.267.153.545.273.976-1.137-.352-2.128-.648-3.112-.969a5869.121 5869.121 0 0 1-13.544-4.45c-5.907-1.945-11.81-3.898-17.715-5.85-1.197-.396-2.384-.837-3.59-1.194-.585-.171-.642-.395-.458-.955 1.746-5.28 3.474-10.571 5.156-15.872.152-.474.096-1.123-.103-1.59-2.918-6.826-5.874-13.638-8.824-20.45C6.24 66.508 3.155 59.393.092 52.264c-.117-.27-.117-.691.01-.959 4.157-8.743 8.343-17.468 12.51-26.208A7004.548 7004.548 0 0 0 24.202.698c.34-.72.69-.816 1.405-.588 8.544 2.694 17.1 5.359 25.654 8.031 4.681 1.46 9.366 2.918 14.05 4.379.107.032.199.103.411.22-1.005 1.12-1.954 2.192-2.921 3.254-3.803 4.168-7.63 8.319-11.409 12.513-.62.687-1.158.919-2.103.69-5.91-1.435-11.834-2.796-17.758-4.175-1.628-.378-3.264-.737-5.074-1.147-.095 1.097-.202 2.141-.273 3.185-.201 2.861-.385 5.726-.58 8.59-.276 4.044-.546 8.091-.854 12.135-.063.838.216 1.034 1.024 1.037 5.424.029 10.85.121 16.274.175 2.145.021 4.295.003 6.44.003l.139.35v-.004ZM269.44 27.391c2.252.353 4.394.695 6.54 1.027 3.339.513 6.675 1.036 10.017 1.507.588.082.723.313.737.844.142 5.002.283 10.008.457 15.01.212 6.064.453 12.128.683 18.189.092 2.455.195 4.913.29 7.368.234 6.028.468 12.06.705 18.089 0 .06 0 .117.004.178.191 2.098.198 2.116-1.725 2.99-4.737 2.144-9.482 4.271-14.227 6.405-.078.036-.166.05-.382.114l-4.844-11.387-13.99 14.494c-1.725-1.425-3.4-2.811-5.075-4.197-3.137-2.597-6.267-5.202-9.418-7.778-.461-.374-.634-.762-.631-1.35.022-4.981.022-9.958.015-14.94-.007-5.454-.008-10.909-.071-16.364-.007-.726-.241-1.52-.588-2.162-1.678-3.09-3.445-6.128-5.141-9.207-.149-.27-.156-.78 0-1.033 4.497-7.318 9.022-14.619 13.547-21.922.046-.075.117-.132.28-.307.396.645.786 1.24 1.14 1.86 3.261 5.719 6.48 11.462 9.801 17.145.637 1.09.51 2.148.471 3.249-.106 2.897-.266 5.793-.393 8.69-.159 3.638-.294 7.275-.46 10.91-.16 3.512-.344 7.029-.528 10.542-.113 2.152-.237 4.304-.358 6.46-.056 1 .089 1.1 1.034.869a452.123 452.123 0 0 1 8.375-1.978c.736-.163 1.119-.38 1.136-1.243.05-2.661.177-5.323.315-7.984.273-5.288.588-10.568.857-15.855.223-4.376.393-8.754.602-13.13.223-4.638.457-9.28.694-13.92.018-.349.078-.698.131-1.179v-.004ZM182.646 39.081l-15.895-9.851 39.807-25.176.187.168c-8.016 11.593-16.033 23.19-24.099 34.86Z"/></g><defs><clipPath id="clip0_0_73"><path fill="#fff" d="M0 0h400v128H0z"/></clipPath></defs></svg>