<svg width="294" height="294" viewBox="0 0 294 294" fill="none" xmlns="http://www.w3.org/2000/svg">
<path d="M103.424 1.41462C139.964 0.0646234 217.924 -3.72538 249.124 11.5946C284.384 28.9046 290.124 60.5746 292.004 96.2546C293.874 131.905 294.014 171.205 292.034 206.885C288.284 274.565 250.324 290.995 188.884 293.055C161.764 293.965 131.214 293.965 104.084 293.055C33.9238 290.705 3.77384 269.905 0.933844 196.925C-0.286156 165.545 -0.336156 128.585 0.933844 97.2246C3.90384 24.0146 33.3038 4.01462 103.424 1.42462V1.41462ZM100.434 27.3146C47.1738 29.6746 29.1738 43.5946 26.8438 98.2046C25.4638 130.615 24.5638 168.755 26.8938 200.845C30.4938 250.425 49.2338 264.995 98.0938 267.155C128.334 268.485 159.674 267.305 189.794 266.075C216.684 264.975 245.134 266.075 258.974 237.605C270.624 213.645 266.854 146.615 266.034 118.225C264.674 71.5946 267.204 31.6746 207.814 27.9846C173.964 25.8746 134.434 25.8146 100.434 27.3246V27.3146Z" fill="white"/>
<path d="M68.764 87.0046C78.5174 87.0046 86.424 79.0979 86.424 69.3446C86.424 59.5912 78.5174 51.6846 68.764 51.6846C59.0107 51.6846 51.104 59.5912 51.104 69.3446C51.104 79.0979 59.0107 87.0046 68.764 87.0046Z" fill="white"/>
<path d="M144.744 73.1346C103.524 73.1346 70.104 106.555 70.104 147.775C70.104 188.995 103.524 222.415 144.744 222.415C185.964 222.415 219.384 188.995 219.384 147.775C219.384 106.555 185.964 73.1346 144.744 73.1346ZM146.374 196.395C119.194 196.395 97.164 174.365 97.164 147.185C97.164 120.005 119.194 97.9746 146.374 97.9746C173.554 97.9746 195.584 120.005 195.584 147.185C195.584 174.365 173.554 196.395 146.374 196.395Z" fill="white"/>
</svg>
