<svg width="190" height="21" viewBox="0 0 190 21" fill="none" xmlns="http://www.w3.org/2000/svg">
<g clip-path="url(#clip0_0_83)">
<path d="M13.0023 0.158447H0V19.9749H13.0023C26.265 19.9749 26.293 0.158447 13.0023 0.158447ZM12.3434 15.6823H4.97139V4.44891H12.3434C19.8769 4.44891 19.864 15.6823 12.3434 15.6823Z" fill="white"/>
<path d="M180.042 0.158447H167.04V19.9749H180.042C193.305 19.9749 193.333 0.158447 180.042 0.158447ZM179.381 15.6802H172.014V4.45102H179.381C186.913 4.45102 186.898 15.6802 179.381 15.6802Z" fill="white"/>
<path d="M104.335 6.95765C85.4265 -3.92279 79.7747 21.5368 101.363 15.3484V12.8586H95.0614V8.80487H106.137V17.9797C77.5851 32.0959 72.3123 -8.43939 104.623 1.62311L104.332 6.95765H104.335Z" fill="white"/>
<path d="M138.82 0.158447H143.415V12.7128C143.415 18.1995 155.291 18.1995 155.291 12.7128V0.158447H160.025V12.7128C160.025 23.7644 138.818 23.7644 138.818 12.7128V0.158447H138.82Z" fill="white"/>
<path d="M40.5527 0.158447H36.3392L24.5879 19.9749H30.1212L32.3324 16.2001H44.6974L47.0463 19.9749H52.1964L40.5527 0.158447ZM34.8881 11.7575L38.3932 5.76352L41.8941 11.7575H34.8881Z" fill="white"/>
<path d="M125.042 0.158447H120.829L109.078 19.9749H114.611L116.822 16.2001H129.187L131.536 19.9749H136.686L125.042 0.158447ZM119.341 11.7575L122.883 5.76352L126.425 11.7575H119.343H119.341Z" fill="white"/>
<path d="M73.2296 12.7403C80.1387 9.48544 77.1675 0.158447 69.7072 0.158447H55.5208V19.9749H59.8268V13.5561H68.4627L72.4006 19.9749H77.5852L73.2296 12.7424V12.7403ZM68.8029 9.29945H59.8871V4.20374H68.8029C73.1994 4.20374 73.1994 9.29945 68.8029 9.29945Z" fill="white"/>
</g>
<defs>
<clipPath id="clip0_0_83">
<rect width="190" height="21" fill="white"/>
</clipPath>
</defs>
</svg>
